<svg id="Layer_1" enable-background="new 0 0 512.006 512.006" height="512" viewBox="0 0 512.006 512.006" width="512" xmlns="http://www.w3.org/2000/svg"><path d="m41.081 459.131c-2.021 3.809-.724 7.039.23 8.625.953 1.586 3.197 4.248 7.51 4.248h187.276c11.046 0 20 8.954 20 20s-8.954 20-20 20h-187.276c-17.27 0-32.893-8.836-41.791-23.636-8.851-14.721-9.371-32.549-1.407-47.749l207.101-414.284c.073-.146.148-.292.225-.436 8.481-15.973 24.984-25.896 43.069-25.896s34.588 9.923 43.068 25.896c.033.061.064.122.097.184l50.596 97.725c5.078 9.809 1.243 21.877-8.565 26.956-9.81 5.077-21.878 1.244-26.956-8.565l-50.538-97.611c-2.154-3.987-5.746-4.584-7.702-4.584-1.941 0-5.494.588-7.653 4.494l-92.846 185.727c3.983 1.165 8.377 1.754 13.236 1.774 11.373-.043 20.356-2.742 27.448-8.254 10.262-7.976 23.016-12.497 35.913-12.731 14.034-.271 27.936 4.445 39.137 13.238 8.688 6.82 10.202 19.393 3.382 28.081s-19.392 10.203-28.081 3.382c-3.98-3.124-8.807-4.778-13.709-4.708-4.378.08-8.561 1.574-12.096 4.321-14.109 10.967-31.514 16.568-51.73 16.666v.009h-.538c-.145 0-.29-.001-.435-.004-11.063-.106-21.271-2.029-30.553-5.715l-96.187 192.41c-.073.147-.148.292-.225.437zm470.728-20.112c-.948 6.704-5.212 12.482-11.351 15.34-1.302.606-29.371 13.358-84.44 16.113v21.531c0 11.046-8.954 20-20 20s-20-8.954-20-20v-21.399c-56.925-2.435-89.065-15.253-90.54-15.853-6.443-2.622-11.061-8.404-12.193-15.267s1.382-13.822 6.64-18.375c7.097-6.183 23.352-22.711 33.56-40.837-3.655-1.323-6.66-2.56-9.093-3.563-.979-.403-1.863-.769-2.662-1.082-6.979-2.731-11.846-9.135-12.607-16.591s2.708-14.711 8.99-18.798c7.203-4.722 24.671-18.336 34.805-33.19-6.24-1.834-10.54-3.531-12.791-4.498-6.595-2.833-11.166-8.98-11.979-16.111s2.257-14.15 8.044-18.394c36.764-26.96 57.171-91.332 57.373-91.979 2.59-8.302 10.25-13.989 18.946-14.054 8.66-.042 16.441 5.488 19.154 13.75.213.645 22.165 66.253 56.71 93.395 5.587 4.39 8.426 11.415 7.457 18.454s-5.6 13.035-12.165 15.752c-3.017 1.249-6.143 2.543-9.389 3.74 9.949 15.346 26.711 28.175 34.291 32.908 6.392 3.99 10.019 11.247 9.35 18.751-.668 7.505-5.477 14.01-12.473 16.808-4.49 1.796-9.13 3.384-13.841 4.792 10.213 18.09 26.428 34.577 33.529 40.764 5.105 4.45 7.624 11.189 6.675 17.893zm-76.335-91.477c-8.742-9.282-17.297-20.695-22.833-33.785-6.647.711-13.089 1.246-19.48 1.246-.058 0-.115 0-.173 0-6.582-.01-12.759-.265-18.519-.697-5.771 13.056-14.939 24.717-24.151 34.198.071.039.145.073.214.112 8.75 1.419 19.417 2.386 32.486 2.386.242 0 .484.004.727.013.342.013 24.885.781 51.729-3.473zm-68.247-74.177c7.396.962 16.029 1.623 25.821 1.638 6.701-.024 14.673-.918 23.135-1.902.363-.042.728-.084 1.094-.127-9.73-12.891-17.929-26.941-24.497-39.828-6.711 13.033-15.216 27.23-25.553 40.219zm87.359 152.571c-8.476-10.375-17.37-23.25-23.606-37.398-17.758 2.175-33.242 2.55-41.768 2.551-3.332 0-5.6-.057-6.529-.085-10.89-.012-20.514-.619-29.003-1.594-6.122 13.601-14.668 25.989-22.859 36.071 15.712 2.91 37.261 5.523 63.977 5.523 25.395-.001 45.304-2.361 59.788-5.068z"/></svg>